# xmcd CD database file
#
# Track frame offsets:
#	150
#	17347
#	34080
#	48052
#	63322
#	79097
#
# Disc length: 1284 seconds
#
# Revision: 0
# Processed by: cddbd v1.4PL0 Copyright (c) Steve Scherf et al.
# Submitted via: CDex 1.40Release
#
DISCID=39050206
DTITLE=Paul Thorn - Still No Hits
DYEAR=2001
DGENRE=Blues
TTITLE0=Mission Temple Fireworks Stand
TTITLE1=Rocks
TTITLE2=We May Not Have a Future (But We Sure Do Have a Past)
TTITLE3=Time Changes Everything
TTITLE4=It Don't Feel Like a Saturday Night
TTITLE5=Livin' Without You
EXTD=YEAR: 2001 ID3G: 0
EXTT0=
EXTT1=
EXTT2=
EXTT3=
EXTT4=
EXTT5=
PLAYORDER=
